<?xml version='1.0' encoding='utf-8'?>
<svg xmlns="http://www.w3.org/2000/svg" enable-background="new 0 0 841.89 595.28" version="1.1" viewBox="0 0 841.89 595.28">
	<path d="m133.85 282.57c3.824-4.112 8.519-8.998 9.084-14.886 0.494-5.109-2.789-9.444-6.073-12.982-2.208-2.379-4.584-4.682-6.089-7.599-0.706-1.363-1.298-2.79-2.101-4.104-0.644-1.048-1.556-1.872-2.186-2.925-1.022-1.707-1.843-4.408-3.781-5.316-2.278-1.065-5.072 0.605-6.841 1.928-5.039 3.767-8.656 8.875-11.707 14.312-3.201 5.708-4.269 11.852-5.233 18.248-1.004 6.671-1.425 13.583-0.56 20.292 0.406 3.139 1.154 6.215 2.091 9.233 0.397 1.269 0.767 2.636 1.467 3.777 0.56 0.918 1.706 2.083 1.605 3.243-4e-3 0.018-1.47-0.782-1.581-1.106-0.388-1.132-1.189-2.029-2.464-1.989-1.285 0.04-2.471 0.465-3.366-0.767-0.869-1.199-0.97-2.862-1.271-4.264-0.729-3.384-1.752-6.724-2.588-10.085-0.91-3.652-1.637-7.365-2.737-10.969-0.606-1.988-1.898-6.962-4.376-7.473-1.755-0.363 0.265 1.964 0.463 2.222 1.009 1.303 1.853 2.725 2.539 4.223 2.688 5.873 3.714 12.611 5.458 18.805 0.91 3.238 1.92 6.438 2.92 9.648 0.565 1.806-3.173 0.679-3.849 0.495-5.904-1.616-12.141-2.505-18.204-3.295-3.027-0.394-6.097-0.826-8.959-1.931-1.359-0.524-2.509-1.235-3.647-2.143-0.444-0.354-2.646-1.924-1.994-0.076 0.807 2.29 5.173 2.941 7.173 3.362 3.512 0.737 7.082 1.13 10.631 1.646 3.092 0.447 6.173 0.987 9.249 1.523 1.635 0.287 6.469 0.261 7.299 1.999 0.68 1.431-0.125 2.601 1.122 3.787 0.303 0.287 2.27 2.57 2.595 2.504-0.952 0.17-2.032-0.646-2.819-1.062-1.164-0.611-2.485-0.926-3.76-1.21-3.311-0.739-6.676-1.268-10.071-1.398-6.708-0.258-13.486 0.783-19.989 2.353-6.302 1.52-12.571 3.21-17.949 6.967-5.305 3.705-10.487 8.032-13.59 13.826-0.83 1.547-1.845 3.714-1.051 5.469 1.142 2.519 5.756 3.946 8.032 5.188 2.64 1.442 5.614 2.207 8.125 3.897 2.859 1.924 5.468 4.217 8.422 6.011 4.09 2.489 8.843 3.556 13.352 1.501 3.135-1.429 5.513-4.183 8.008-6.479 0.29-0.271 3.763-3.716 4.091-3.427-0.168 2.505-0.945 4.781-0.804 7.331 0.156 2.858 1.08 5.377 1.786 8.115 1.342 5.205 4.922 9.842 9.673 12.501 1.956 1.095 4.22 2.155 6.422 2.614 1.131 0.236 2.357 0.273 3.43 0.718 1.308 0.546 2.271 1.642 3.543 2.251 2.183 1.043 4.269 0.599 6.541 0.234 2.361-0.375 4.737-0.148 7.02-1.002 2.008-0.745 3.778-2.115 5.733-3.015 2.117-0.976 4.548-1.988 5.908-3.989 0.645-0.946 0.919-2.003 1.724-2.864 0.954-1.024 2.121-1.866 2.707-3.179 0.948-2.119 0.277-4.765-0.323-6.885-0.264-0.938-0.712-1.886-0.857-2.852-0.154-1.023 0.084-2.077-0.208-3.081-0.869-2.941-2.244-5.663-3.652-8.373-1.467-2.818-2.984-5.599-4.594-8.345-0.093-0.16-2.396-3.517-1.845-4.036 0.481-0.452 8.503 7.175 9.445 7.888 0.586 0.445 5.045 4.132 5.624 3.497 1.367-1.496-13.289-13.581-12.684-14.013 0.996-0.709 4.283 1.534 5.086 1.909 2.724 1.283 5.463 2.499 8.267 3.593 2.151 0.836 4.34 1.602 6.606 2.07 2.612 0.538 5.287 0.516 7.918 0.946 2.144 0.351 5.129 1.037 7.073-0.277 0.801-0.544 1.32-1.382 1.877-2.151 0.815-1.122 1.887-1.688 2.899-2.59 1.939-1.732 2.848-4.221 3.784-6.577 0.93-2.344 2.415-4.49 2.809-7.02 0.33-2.117 0.107-4.339 0.29-6.486 0.229-2.685-0.224-4.805-2.03-6.88-1.973-2.266-2.09-4.836-3.406-7.423-1.222-2.396-2.618-5.088-4.606-6.935-1.713-1.591-3.828-3.271-5.904-4.359-2.213-1.156-4.754-1.271-7.143-1.836-2.549-0.602-5.361-0.9-7.976-0.584-1.19 0.146-2.331 0.515-3.478 0.849-0.689 0.2-1.384 0.385-2.097 0.497-0.46-0.44 0.27-1.02 0.56-1.24" clip-rule="evenodd" fill="#FF007B" fill-rule="evenodd"/>
		<g fill="none" stroke="#FF007B" stroke-miterlimit="10" stroke-width="3">
			<path d="m137.08 342.67s0.843 0.884 2.428 2.516"/>
			<path d="m144.38 350.16c26.695 26.993 120.54 118.66 180.52 136.1 70.513 20.513 178.82-2.944 239.71-93.329 60.896-90.385 85.928-112.44 119.9-143.21s60.256-73.718 63.461-130.77-36.871-93.012-88.461-94.231c-53.045-1.254-76.658 46.739-83.602 64.618" stroke-dasharray="6.9666,6.9666"/>
			<path d="m574.7 92.611c-0.744 2.11-1.09 3.323-1.09 3.323s-0.312-1.221-1.016-3.345"/>
			<path d="m570.14 86.004c-8.18-19.956-32.451-62.921-89.477-61.594-73.755 1.716-95.514 69.545-92.95 99.032s23.078 100.64 92.95 150.64c69.871 50 103.62 117.35 119 138.5s74.305 67.908 148.48 85.857c50.686 12.265 75.869 15.85 86.738 16.89" stroke-dasharray="7.0289,7.0289"/>
			<path d="m838.4 515.62c2.471 0.163 3.494 0.13 3.494 0.13"/>
		</g>
</svg>